<svg xmlns="http://www.w3.org/2000/svg" width="512" height="512" viewBox="0 0 512 512">
  <rect width="512" height="512" fill="#0b7c6e"/>
  <g transform="translate(134,121) scale(0.95)" fill="#ffffff">
    <path d="M208,32H48A16,16,0,0,0,32,50V234a16,16,0,0,0,16,19H208a16,16,0,0,0,16-19V50A16,16,0,0,0,208,32ZM80,234H48V50H80ZM176,93H112a9,9,0,0,1,0-18h64a9,9,0,0,1,0,18ZM176,130H112a9,9,0,0,1,0-18h64a9,9,0,0,1,0,18ZM107,176h16v16h16v16h-16v16h-16v-16h-16v-16h16v-16ZM165,176h16v16h16v16h-16v16h-16v-16h-16v-16h16v-16Z"/>
  </g>
</svg>
